<svg width="30" height="30" viewBox="0 0 30 30" fill="none" xmlns="http://www.w3.org/2000/svg">
<path d="M22.3913 6.28691L15 13.6782L7.60875 6.28691C7.43098 6.12423 7.1973 6.03642 6.95639 6.04176C6.71548 6.04709 6.48592 6.14517 6.31553 6.31557C6.14514 6.48596 6.04706 6.71552 6.04172 6.95643C6.03639 7.19734 6.1242 7.43102 6.28688 7.60879L13.6744 15L6.285 22.3894C6.19473 22.4754 6.12256 22.5787 6.07275 22.693C6.02293 22.8073 5.99647 22.9304 5.99493 23.0551C5.99339 23.1798 6.01678 23.3036 6.06375 23.4191C6.11072 23.5346 6.18031 23.6396 6.26843 23.7278C6.35655 23.8161 6.46142 23.8858 6.57687 23.933C6.69233 23.9801 6.81604 24.0037 6.94074 24.0023C7.06544 24.0009 7.18861 23.9746 7.30301 23.925C7.4174 23.8753 7.52072 23.8033 7.60688 23.7132L15 16.3238L22.3913 23.715C22.569 23.8777 22.8027 23.9655 23.0436 23.9602C23.2845 23.9549 23.5141 23.8568 23.6845 23.6864C23.8549 23.516 23.9529 23.2864 23.9583 23.0455C23.9636 22.8046 23.8758 22.5709 23.7131 22.3932L16.3219 15.0019L23.7131 7.60879C23.8034 7.52275 23.8756 7.41954 23.9254 7.30521C23.9752 7.19089 24.0017 7.06776 24.0032 6.94306C24.0047 6.81836 23.9813 6.69462 23.9344 6.57909C23.8874 6.46357 23.8178 6.3586 23.7297 6.27036C23.6416 6.18211 23.5367 6.11238 23.4213 6.06524C23.3058 6.01811 23.1821 5.99454 23.0574 5.99591C22.9327 5.99727 22.8095 6.02356 22.6951 6.07321C22.5807 6.12286 22.4774 6.19488 22.3913 6.28504V6.28691Z" fill="#1B1D4D"/>
</svg>
