<svg width="22" height="22" viewBox="0 0 22 22" fill="none" xmlns="http://www.w3.org/2000/svg">
<g clip-path="url(#clip0_16_9547)">
<path d="M18.7483 5.40048L15.9436 0.542776C15.7989 0.292096 15.5645 0.112573 15.2836 0.0373343C15.0025 -0.037947 14.7098 0.000295187 14.4592 0.145057L5.35773 5.39975H3.28118C2.01687 5.39975 0.988281 6.42833 0.988281 7.69265V17.7305C0.988281 18.9948 2.01687 20.0234 3.28118 20.0234H3.90384C4.7615 21.2193 6.16314 22 7.74378 22C9.32443 22 10.7261 21.2193 11.5837 20.0234H18.7188C19.9831 20.0234 21.0117 18.9948 21.0117 17.7305V7.69265C21.0117 6.43822 19.999 5.41638 18.7483 5.40048ZM10.4974 5.39975L16.0898 2.1709L16.5732 3.00806L12.4307 5.39975H10.4974ZM16.9169 3.60344L17.954 5.39975H13.8056L16.9169 3.60344ZM14.8029 0.740389C14.8945 0.687537 15.0021 0.673615 15.1056 0.701373C15.2092 0.729131 15.2954 0.794873 15.3483 0.886526L15.7461 1.57557L9.12239 5.39979H6.73264L14.8029 0.740389ZM7.74378 21.3125C5.51882 21.3125 3.70868 19.5023 3.70868 17.2773C3.70868 15.0524 5.51882 13.2422 7.74378 13.2422C9.96875 13.2422 11.7789 15.0524 11.7789 17.2773C11.7789 19.5023 9.96875 21.3125 7.74378 21.3125ZM18.7188 19.3359H11.9936C12.2964 18.7134 12.4664 18.0149 12.4664 17.2773C12.4664 14.6733 10.3479 12.5547 7.74378 12.5547C5.13971 12.5547 3.02118 14.6733 3.02118 17.2773C3.02118 18.0149 3.19125 18.7134 3.494 19.3359H3.28118C2.39598 19.3359 1.67578 18.6157 1.67578 17.7305V7.69265C1.67578 6.8074 2.39598 6.08725 3.28118 6.08725H18.7188C19.604 6.08725 20.3242 6.80745 20.3242 7.69265V10.1896H14.9909C13.6003 10.1896 12.469 11.321 12.469 12.7116C12.469 14.1022 13.6003 15.2335 14.9909 15.2335H20.3242V17.7304C20.3242 18.6157 19.604 19.3359 18.7188 19.3359ZM20.3242 10.8771V14.5461H14.9909C13.9794 14.5461 13.1565 13.7232 13.1565 12.7117C13.1565 11.7001 13.9794 10.8772 14.9909 10.8772H20.3242V10.8771ZM13.9278 12.7116C13.9278 13.2978 14.4047 13.7747 14.9909 13.7747C15.5772 13.7747 16.0541 13.2978 16.0541 12.7116C16.0541 12.1253 15.5771 11.6484 14.9909 11.6484C14.4047 11.6484 13.9278 12.1253 13.9278 12.7116ZM15.3666 12.7116C15.3666 12.9187 15.198 13.0872 14.9909 13.0872C14.7838 13.0872 14.6153 12.9187 14.6153 12.7116C14.6153 12.5045 14.7838 12.3359 14.9909 12.3359C15.198 12.3359 15.3666 12.5045 15.3666 12.7116ZM9.12991 17.7646C9.12974 17.7646 9.12957 17.7646 9.12944 17.7646C8.48336 17.7649 7.95786 18.2907 7.95811 18.9368C7.95824 19.2497 8.08023 19.544 8.30161 19.7652C8.52285 19.9863 8.81697 20.108 9.12979 20.108H9.13021C9.4432 20.108 9.73745 19.986 9.95865 19.7646C10.1799 19.5432 10.3017 19.2489 10.3015 18.936C10.3015 18.6229 10.1795 18.3287 9.95809 18.1075C9.73685 17.8864 9.44273 17.7646 9.12991 17.7646ZM9.47237 19.2787C9.38098 19.3701 9.25938 19.4205 9.13 19.4206C9.12991 19.4206 9.12987 19.4206 9.12983 19.4206C9.00054 19.4206 8.87898 19.3703 8.78754 19.2789C8.69602 19.1875 8.64561 19.0659 8.64557 18.9365C8.64548 18.6695 8.86265 18.4522 9.12966 18.4521H9.12983C9.25916 18.4521 9.38072 18.5024 9.47216 18.5938C9.56364 18.6853 9.61404 18.8068 9.61409 18.9362C9.61413 19.0656 9.56381 19.1872 9.47237 19.2787ZM6.35813 16.7901C7.00421 16.7899 7.52972 16.2641 7.52946 15.618C7.52937 15.305 7.40738 15.0107 7.18601 14.7895C6.96472 14.5684 6.6706 14.4466 6.35779 14.4466C6.35761 14.4466 6.35744 14.4466 6.35731 14.4466C5.71123 14.4469 5.18573 14.9727 5.18598 15.6188C5.18624 16.2648 5.71179 16.7902 6.35779 16.7902C6.35787 16.7901 6.35804 16.7901 6.35813 16.7901ZM5.87344 15.6185C5.87336 15.3515 6.09052 15.1342 6.35753 15.1341H6.3577C6.48704 15.1341 6.60859 15.1844 6.70003 15.2758C6.79151 15.3673 6.84191 15.4888 6.84196 15.6182C6.84204 15.8852 6.62488 16.1025 6.35791 16.1026C6.35787 16.1026 6.35783 16.1026 6.35779 16.1026C6.09082 16.1026 5.87353 15.8855 5.87344 15.6185ZM9.59973 15.3018L6.49657 19.6236C6.42941 19.7171 6.32401 19.7669 6.21706 19.7669C6.14767 19.7669 6.07759 19.7459 6.01687 19.7023C5.86266 19.5916 5.82742 19.3768 5.93815 19.2226L9.04131 14.9008C9.152 14.7466 9.36667 14.7112 9.52102 14.8221C9.67523 14.9328 9.71046 15.1476 9.59973 15.3018Z" fill="#4C4C60"/>
</g>
<defs>
<clipPath id="clip0_16_9547">
<rect width="22" height="22" fill="white"/>
</clipPath>
</defs>
</svg>
