<svg width="161" height="150" viewBox="0 0 161 150" fill="none" xmlns="http://www.w3.org/2000/svg">
<path d="M150.118 103.674C149.83 103.578 149.542 103.501 149.236 103.425C148.66 103.271 148.066 103.156 147.49 103.079C147.203 103.041 146.915 103.003 146.627 102.964C145.803 102.868 145.132 102.216 145.036 101.373C144.997 101.085 144.959 100.797 144.921 100.51C144.825 99.9342 144.71 99.3397 144.575 98.7644C144.499 98.4767 144.422 98.189 144.326 97.8822C144.23 97.5945 144.134 97.3068 144 97C143.866 97.2877 143.77 97.5753 143.674 97.8822C143.578 98.1699 143.501 98.4575 143.425 98.7644C143.271 99.3397 143.156 99.9342 143.079 100.51C143.041 100.797 143.003 101.085 142.964 101.373C142.869 102.197 142.216 102.868 141.373 102.964C141.085 103.003 140.797 103.041 140.51 103.079C139.934 103.175 139.34 103.29 138.764 103.425C138.477 103.501 138.189 103.578 137.882 103.674C137.595 103.77 137.307 103.866 137 104C137.288 104.134 137.575 104.23 137.882 104.326C138.17 104.422 138.458 104.499 138.764 104.575C139.34 104.729 139.934 104.844 140.51 104.921C140.797 104.959 141.085 104.997 141.373 105.036C142.197 105.132 142.869 105.784 142.964 106.627C143.003 106.915 143.041 107.203 143.079 107.49C143.175 108.066 143.29 108.66 143.425 109.236C143.501 109.523 143.578 109.811 143.674 110.118C143.77 110.405 143.866 110.693 144 111C144.134 110.712 144.23 110.425 144.326 110.118C144.422 109.83 144.499 109.542 144.575 109.236C144.729 108.66 144.844 108.066 144.921 107.49C144.959 107.203 144.997 106.915 145.036 106.627C145.132 105.803 145.784 105.132 146.627 105.036C146.915 104.997 147.203 104.959 147.49 104.921C148.066 104.825 148.66 104.71 149.236 104.575C149.523 104.499 149.811 104.422 150.118 104.326C150.405 104.23 150.693 104.134 151 104C150.693 103.866 150.405 103.77 150.118 103.674Z" fill="url(#paint0_linear_18_4553)"/>
<path d="M160.306 95.243C160.075 95.1659 159.843 95.1145 159.612 95.0374C159.15 94.9346 158.687 94.8318 158.25 94.7547C158.019 94.729 157.787 94.7033 157.582 94.6776C156.939 94.6005 156.4 94.0864 156.322 93.4182C156.297 93.1869 156.271 92.9556 156.245 92.75C156.168 92.2874 156.091 91.8248 155.963 91.3879C155.911 91.1565 155.834 90.9252 155.757 90.6939C155.68 90.4626 155.603 90.2313 155.5 90C155.397 90.2313 155.32 90.4626 155.243 90.6939C155.166 90.9252 155.114 91.1565 155.037 91.3879C154.935 91.8505 154.832 92.3131 154.755 92.75C154.729 92.9813 154.703 93.2126 154.678 93.4182C154.6 94.0607 154.086 94.6005 153.418 94.6776C153.187 94.7033 152.956 94.729 152.75 94.7547C152.287 94.8318 151.825 94.9089 151.388 95.0374C151.157 95.0888 150.925 95.1659 150.694 95.243C150.463 95.3201 150.231 95.3972 150 95.5C150.231 95.6028 150.463 95.6799 150.694 95.757C150.925 95.8341 151.157 95.8855 151.388 95.9626C151.85 96.0654 152.313 96.1682 152.75 96.2453C152.981 96.271 153.213 96.2967 153.418 96.3224C154.061 96.3995 154.6 96.9136 154.678 97.5818C154.703 97.8131 154.729 98.0444 154.755 98.25C154.832 98.7126 154.909 99.1752 155.037 99.6122C155.089 99.8435 155.166 100.075 155.243 100.306C155.32 100.537 155.397 100.769 155.5 101C155.603 100.769 155.68 100.537 155.757 100.306C155.834 100.075 155.886 99.8435 155.963 99.6122C156.065 99.1495 156.168 98.6869 156.245 98.25C156.271 98.0187 156.297 97.7874 156.322 97.5818C156.4 96.9393 156.914 96.3995 157.582 96.3224C157.813 96.2967 158.044 96.271 158.25 96.2453C158.713 96.1682 159.175 96.0911 159.612 95.9626C159.843 95.9112 160.075 95.8341 160.306 95.757C160.537 95.6799 160.769 95.6028 161 95.5C160.769 95.3972 160.537 95.3201 160.306 95.243Z" fill="url(#paint1_linear_18_4553)"/>
<g filter="url(#filter0_d_18_4553)">
<circle cx="77" cy="60" r="50" fill="url(#paint2_linear_18_4553)"/>
</g>
<path d="M98.52 63.6133H54.84C53.3733 63.6133 52.1733 62.4133 52.1733 60.9466C52.1733 59.48 53.3733 58.28 54.84 58.28H98.52C99.9867 58.28 101.187 59.48 101.187 60.9466C101.173 62.4133 99.9867 63.6133 98.52 63.6133ZM54.84 59.56C54.08 59.56 53.4533 60.1866 53.4533 60.9466C53.4533 61.7066 54.08 62.3333 54.84 62.3333H98.52C99.28 62.3333 99.9067 61.7066 99.9067 60.9466C99.9067 60.1866 99.28 59.56 98.52 59.56H54.84Z" fill="white"/>
<path d="M98.52 86.4133H54.84C53.3733 86.4133 52.1733 85.2133 52.1733 83.7466C52.1733 82.28 53.3733 81.08 54.84 81.08H98.52C99.9867 81.08 101.187 82.28 101.187 83.7466C101.187 85.2133 99.9867 86.4133 98.52 86.4133ZM54.84 82.3733C54.08 82.3733 53.4533 83 53.4533 83.76C53.4533 84.52 54.08 85.1466 54.84 85.1466H98.52C99.28 85.1466 99.9067 84.52 99.9067 83.76C99.9067 83 99.28 82.3733 98.52 82.3733H54.84Z" fill="white"/>
<path d="M66.1866 67.12H55.4133C55.0533 67.12 54.7733 66.84 54.7733 66.48V62.9733C54.7733 62.6133 55.0533 62.3333 55.4133 62.3333C55.7733 62.3333 56.0533 62.6133 56.0533 62.9733V65.84H65.5466V62.9733C65.5466 62.6133 65.8266 62.3333 66.1866 62.3333C66.5466 62.3333 66.8266 62.6133 66.8266 62.9733V66.48C66.8266 66.84 66.5466 67.12 66.1866 67.12Z" fill="white"/>
<path d="M64.1066 82.3733C63.7466 82.3733 63.4666 82.0933 63.4666 81.7333V66.48C63.4666 66.12 63.7466 65.84 64.1066 65.84C64.4666 65.84 64.7466 66.12 64.7466 66.48V81.7333C64.7466 82.08 64.4666 82.3733 64.1066 82.3733ZM57.4933 82.3733C57.1333 82.3733 56.8533 82.0933 56.8533 81.7333V66.48C56.8533 66.12 57.1333 65.84 57.4933 65.84C57.8533 65.84 58.1333 66.12 58.1333 66.48V81.7333C58.1333 82.08 57.8399 82.3733 57.4933 82.3733Z" fill="white"/>
<path d="M82.0667 67.12H71.2933C70.9333 67.12 70.6533 66.84 70.6533 66.48V62.9733C70.6533 62.6133 70.9333 62.3333 71.2933 62.3333C71.6533 62.3333 71.9333 62.6133 71.9333 62.9733V65.84H81.4267V62.9733C81.4267 62.6133 81.7067 62.3333 82.0667 62.3333C82.4267 62.3333 82.7067 62.6133 82.7067 62.9733V66.48C82.7067 66.84 82.4133 67.12 82.0667 67.12Z" fill="white"/>
<path d="M79.9866 82.3733C79.6266 82.3733 79.3466 82.0933 79.3466 81.7333V66.48C79.3466 66.12 79.6266 65.84 79.9866 65.84C80.3466 65.84 80.6266 66.12 80.6266 66.48V81.7333C80.6266 82.08 80.3333 82.3733 79.9866 82.3733ZM73.36 82.3733C73 82.3733 72.72 82.0933 72.72 81.7333V66.48C72.72 66.12 73 65.84 73.36 65.84C73.72 65.84 74 66.12 74 66.48V81.7333C74 82.08 73.72 82.3733 73.36 82.3733Z" fill="white"/>
<path d="M97.9467 67.12H87.1733C86.8133 67.12 86.5333 66.84 86.5333 66.48V62.9733C86.5333 62.6133 86.8133 62.3333 87.1733 62.3333C87.5333 62.3333 87.8133 62.6133 87.8133 62.9733V65.84H97.3067V62.9733C97.3067 62.6133 97.5867 62.3333 97.9467 62.3333C98.3067 62.3333 98.5867 62.6133 98.5867 62.9733V66.48C98.5867 66.84 98.2933 67.12 97.9467 67.12Z" fill="white"/>
<path d="M95.8666 82.3733C95.5066 82.3733 95.2266 82.0933 95.2266 81.7333V66.48C95.2266 66.12 95.5066 65.84 95.8666 65.84C96.2266 65.84 96.5066 66.12 96.5066 66.48V81.7333C96.5066 82.08 96.2133 82.3733 95.8666 82.3733ZM89.24 82.3733C88.88 82.3733 88.6 82.0933 88.6 81.7333V66.48C88.6 66.12 88.88 65.84 89.24 65.84C89.6 65.84 89.88 66.12 89.88 66.48V81.7333C89.88 82.08 89.6 82.3733 89.24 82.3733Z" fill="white"/>
<path d="M103.093 57.1733C102.64 57.1733 102.187 57.0533 101.76 56.8133L99.24 55.36C98.9333 55.1867 98.8267 54.7867 99 54.48C99.1733 54.1733 99.5733 54.0667 99.88 54.24L102.4 55.6933C103.067 56.08 103.907 55.8533 104.293 55.1867C104.48 54.8667 104.52 54.4933 104.427 54.1333C104.333 53.7733 104.107 53.48 103.787 53.2933L102.813 52.7333C102.507 52.56 102.4 52.16 102.573 51.8533C102.747 51.5467 103.147 51.44 103.453 51.6133L104.427 52.1733C105.04 52.5333 105.48 53.1067 105.667 53.7867C105.853 54.4667 105.76 55.2 105.4 55.8133C104.907 56.6933 104.013 57.1733 103.093 57.1733ZM50.2667 57.1733C50.04 57.1733 49.8 57.1467 49.5733 57.08C48.88 56.8933 48.3067 56.4533 47.96 55.84C47.6 55.2267 47.5067 54.5067 47.6933 53.8133C47.88 53.12 48.32 52.5467 48.9333 52.2L75.2133 37.0267C76.0667 36.5333 77.2933 36.5333 78.1467 37.0267L85.3733 41.2C85.68 41.3733 85.7867 41.7733 85.6133 42.08C85.44 42.3867 85.04 42.4933 84.7333 42.32L77.4933 38.1333C77.04 37.88 76.2933 37.88 75.84 38.1333L49.56 53.3067C49.24 53.4933 49.0133 53.7867 48.92 54.1467C48.8267 54.5067 48.8667 54.88 49.0533 55.2C49.24 55.52 49.5333 55.7467 49.8933 55.84C50.2533 55.9333 50.6267 55.8933 50.9467 55.7067L76.3467 41.04C76.5467 40.92 76.7867 40.92 76.9867 41.04L84.8667 45.5867C85.1733 45.76 85.28 46.16 85.1067 46.4667C84.9333 46.7733 84.5333 46.88 84.2267 46.7067L76.6667 42.3467L51.5867 56.8133C51.1867 57.0533 50.7333 57.1733 50.2667 57.1733Z" fill="white"/>
<path d="M96.2 59.56H57.1333C56.7733 59.56 56.4933 59.28 56.4933 58.92V52.8666C56.4933 52.5066 56.7733 52.2266 57.1333 52.2266C57.4933 52.2266 57.7733 52.5066 57.7733 52.8666V58.28H95.56V55.6933C95.56 55.3333 95.84 55.0533 96.2 55.0533C96.56 55.0533 96.84 55.3333 96.84 55.6933V58.92C96.84 59.28 96.56 59.56 96.2 59.56Z" fill="white"/>
<path d="M95.1734 56.3866C88.9334 56.3866 83.8667 51.32 83.8667 45.08C83.8667 38.84 88.9334 33.7733 95.1734 33.7733C101.413 33.7733 106.48 38.84 106.48 45.08C106.48 51.32 101.4 56.3866 95.1734 56.3866ZM95.1734 35.0666C89.64 35.0666 85.1467 39.56 85.1467 45.0933C85.1467 50.6266 89.64 55.12 95.1734 55.12C100.707 55.12 105.2 50.6266 105.2 45.0933C105.2 39.56 100.693 35.0666 95.1734 35.0666Z" fill="white"/>
<path d="M101.213 54.5066C100.853 54.5066 100.573 54.2266 100.573 53.8666V50.6533C100.573 48.6933 99.4933 46.88 97.7733 45.92C97.4666 45.7466 97.3466 45.36 97.52 45.0533C97.6933 44.7466 98.08 44.6266 98.3866 44.8C100.52 45.9866 101.853 48.2266 101.853 50.6533V53.8666C101.853 54.2266 101.56 54.5066 101.213 54.5066ZM89.12 54.5066C88.76 54.5066 88.48 54.2266 88.48 53.8666V50.6533C88.48 48.2266 89.8 45.9866 91.9466 44.8C92.2533 44.6266 92.64 44.7466 92.8133 45.0533C92.9866 45.36 92.8666 45.7466 92.56 45.92C90.8266 46.88 89.76 48.6933 89.76 50.6533V53.8666C89.76 54.2266 89.48 54.5066 89.12 54.5066Z" fill="white"/>
<path d="M95.1733 47.04C92.2933 47.04 89.9467 44.6933 89.9467 41.8133C89.9467 38.9333 92.2933 36.5867 95.1733 36.5867C98.0533 36.5867 100.4 38.9333 100.4 41.8133C100.4 44.6933 98.0533 47.04 95.1733 47.04ZM95.1733 37.8667C93 37.8667 91.2267 39.64 91.2267 41.8133C91.2267 43.9867 93 45.76 95.1733 45.76C97.3467 45.76 99.12 43.9867 99.12 41.8133C99.12 39.64 97.3467 37.8667 95.1733 37.8667Z" fill="white"/>
<path d="M13.1178 13.674C12.8301 13.5781 12.5425 13.5014 12.2356 13.4247C11.6603 13.2712 11.0658 13.1562 10.4904 13.0795C10.2027 13.0411 9.91507 13.0027 9.6274 12.9644C8.80274 12.8685 8.13151 12.2164 8.03562 11.3726C7.99726 11.0849 7.9589 10.7973 7.92055 10.5096C7.82466 9.93425 7.70959 9.33973 7.57534 8.76438C7.49863 8.47671 7.42192 8.18904 7.32603 7.88219C7.23014 7.59452 7.13425 7.30685 7 7C6.86575 7.28767 6.76986 7.57534 6.67397 7.88219C6.57808 8.16986 6.50137 8.45753 6.42466 8.76438C6.27123 9.33973 6.15617 9.93425 6.07945 10.5096C6.0411 10.7973 6.00275 11.0849 5.96439 11.3726C5.8685 12.1973 5.21644 12.8685 4.3726 12.9644C4.08493 13.0027 3.79726 13.0411 3.50959 13.0795C2.93424 13.1753 2.33973 13.2904 1.76439 13.4247C1.47671 13.5014 1.18905 13.5781 0.882199 13.674C0.594528 13.7699 0.306849 13.8658 0 14C0.287671 14.1342 0.57535 14.2301 0.882199 14.326C1.16987 14.4219 1.45754 14.4986 1.76439 14.5753C2.33973 14.7288 2.93424 14.8438 3.50959 14.9205C3.79726 14.9589 4.08493 14.9973 4.3726 15.0356C5.19726 15.1315 5.8685 15.7836 5.96439 16.6274C6.00275 16.9151 6.0411 17.2027 6.07945 17.4904C6.17534 18.0658 6.29041 18.6603 6.42466 19.2356C6.50137 19.5233 6.57808 19.811 6.67397 20.1178C6.76986 20.4055 6.86575 20.6932 7 21C7.13425 20.7123 7.23014 20.4247 7.32603 20.1178C7.42192 19.8301 7.49863 19.5425 7.57534 19.2356C7.72877 18.6603 7.84383 18.0658 7.92055 17.4904C7.9589 17.2027 7.99726 16.9151 8.03562 16.6274C8.13151 15.8027 8.78356 15.1315 9.6274 15.0356C9.91507 14.9973 10.2027 14.9589 10.4904 14.9205C11.0658 14.8247 11.6603 14.7096 12.2356 14.5753C12.5233 14.4986 12.811 14.4219 13.1178 14.326C13.4055 14.2301 13.6932 14.1342 14 14C13.6932 13.8658 13.4055 13.7699 13.1178 13.674Z" fill="url(#paint3_linear_18_4553)"/>
<path d="M23.3061 5.24299C23.0748 5.16589 22.8435 5.11449 22.6122 5.03738C22.1495 4.93458 21.6869 4.83178 21.25 4.75467C21.0187 4.72897 20.7874 4.70327 20.5818 4.67757C19.9393 4.60047 19.3995 4.08645 19.3224 3.41822C19.2967 3.18692 19.271 2.95561 19.2453 2.75C19.1682 2.28738 19.0911 1.82477 18.9626 1.38785C18.9112 1.15654 18.8341 0.925234 18.757 0.693925C18.6799 0.462617 18.6028 0.231308 18.5 0C18.3972 0.231308 18.3201 0.462617 18.243 0.693925C18.1659 0.925234 18.1145 1.15654 18.0374 1.38785C17.9346 1.85047 17.8318 2.31308 17.7547 2.75C17.729 2.98131 17.7033 3.21262 17.6776 3.41822C17.6005 4.06075 17.0864 4.60047 16.4182 4.67757C16.1869 4.70327 15.9556 4.72897 15.75 4.75467C15.2874 4.83178 14.8248 4.90888 14.3879 5.03738C14.1565 5.08879 13.9252 5.16589 13.6939 5.24299C13.4626 5.32009 13.2313 5.3972 13 5.5C13.2313 5.6028 13.4626 5.67991 13.6939 5.75701C13.9252 5.83411 14.1565 5.88551 14.3879 5.96262C14.8505 6.06542 15.3131 6.16822 15.75 6.24533C15.9813 6.27103 16.2126 6.29673 16.4182 6.32243C17.0607 6.39953 17.6005 6.91355 17.6776 7.58178C17.7033 7.81308 17.729 8.04439 17.7547 8.25C17.8318 8.71262 17.9089 9.17523 18.0374 9.61215C18.0888 9.84346 18.1659 10.0748 18.243 10.3061C18.3201 10.5374 18.3972 10.7687 18.5 11C18.6028 10.7687 18.6799 10.5374 18.757 10.3061C18.8341 10.0748 18.8855 9.84346 18.9626 9.61215C19.0654 9.14953 19.1682 8.68692 19.2453 8.25C19.271 8.01869 19.2967 7.78738 19.3224 7.58178C19.3995 6.93925 19.9136 6.39953 20.5818 6.32243C20.8131 6.29673 21.0444 6.27103 21.25 6.24533C21.7126 6.16822 22.1752 6.09112 22.6122 5.96262C22.8435 5.91122 23.0748 5.83411 23.3061 5.75701C23.5374 5.67991 23.7687 5.6028 24 5.5C23.7687 5.3972 23.5374 5.32009 23.3061 5.24299Z" fill="url(#paint4_linear_18_4553)"/>
<defs>
<filter id="filter0_d_18_4553" x="7" y="10" width="140" height="140" filterUnits="userSpaceOnUse" color-interpolation-filters="sRGB">
<feFlood flood-opacity="0" result="BackgroundImageFix"/>
<feColorMatrix in="SourceAlpha" type="matrix" values="0 0 0 0 0 0 0 0 0 0 0 0 0 0 0 0 0 0 127 0" result="hardAlpha"/>
<feOffset dy="20"/>
<feGaussianBlur stdDeviation="10"/>
<feComposite in2="hardAlpha" operator="out"/>
<feColorMatrix type="matrix" values="0 0 0 0 0.0862745 0 0 0 0 0.0980392 0 0 0 0 0.4 0 0 0 0.2 0"/>
<feBlend mode="normal" in2="BackgroundImageFix" result="effect1_dropShadow_18_4553"/>
<feBlend mode="normal" in="SourceGraphic" in2="effect1_dropShadow_18_4553" result="shape"/>
</filter>
<linearGradient id="paint0_linear_18_4553" x1="144" y1="97" x2="144" y2="111" gradientUnits="userSpaceOnUse">
<stop stop-color="#6B99CB"/>
<stop offset="1" stop-color="#161966"/>
</linearGradient>
<linearGradient id="paint1_linear_18_4553" x1="155.5" y1="90" x2="155.5" y2="101" gradientUnits="userSpaceOnUse">
<stop stop-color="#6B99CB"/>
<stop offset="1" stop-color="#161966"/>
</linearGradient>
<linearGradient id="paint2_linear_18_4553" x1="77" y1="10" x2="77" y2="110" gradientUnits="userSpaceOnUse">
<stop stop-color="#6B99CB"/>
<stop offset="1" stop-color="#161966"/>
</linearGradient>
<linearGradient id="paint3_linear_18_4553" x1="7" y1="7" x2="7" y2="21" gradientUnits="userSpaceOnUse">
<stop stop-color="#6B99CB"/>
<stop offset="1" stop-color="#161966"/>
</linearGradient>
<linearGradient id="paint4_linear_18_4553" x1="18.5" y1="0" x2="18.5" y2="11" gradientUnits="userSpaceOnUse">
<stop stop-color="#6B99CB"/>
<stop offset="1" stop-color="#161966"/>
</linearGradient>
</defs>
</svg>
