<svg width="22" height="22" viewBox="0 0 22 22" fill="none" xmlns="http://www.w3.org/2000/svg">
<path d="M18.7916 11.4583H12.8333C12.4686 11.4583 12.1189 11.6031 11.861 11.861C11.6032 12.1188 11.4583 12.4686 11.4583 12.8333V18.7916C11.4583 19.1563 11.6032 19.506 11.861 19.7639C12.1189 20.0217 12.4686 20.1666 12.8333 20.1666H18.7916C19.1563 20.1666 19.5061 20.0217 19.7639 19.7639C20.0218 19.506 20.1666 19.1563 20.1666 18.7916V12.8333C20.1666 12.4686 20.0218 12.1188 19.7639 11.861C19.5061 11.6031 19.1563 11.4583 18.7916 11.4583ZM19.25 18.7916C19.25 18.9131 19.2017 19.0297 19.1157 19.1157C19.0298 19.2016 18.9132 19.2499 18.7916 19.2499H12.8333C12.7118 19.2499 12.5952 19.2016 12.5092 19.1157C12.4233 19.0297 12.375 18.9131 12.375 18.7916V12.8333C12.375 12.7117 12.4233 12.5951 12.5092 12.5092C12.5952 12.4232 12.7118 12.3749 12.8333 12.3749H18.7916C18.9132 12.3749 19.0298 12.4232 19.1157 12.5092C19.2017 12.5951 19.25 12.7117 19.25 12.8333V18.7916Z" fill="currentColor"/>
<path d="M10.5416 18.7916V12.8333C10.5416 12.4686 10.3968 12.1188 10.1389 11.861C9.88106 11.6031 9.53132 11.4583 9.16665 11.4583H3.20831C2.84364 11.4583 2.4939 11.6031 2.23604 11.861C1.97818 12.1188 1.83331 12.4686 1.83331 12.8333V18.7916C1.83331 19.1563 1.97818 19.506 2.23604 19.7639C2.4939 20.0217 2.84364 20.1666 3.20831 20.1666H9.16665C9.53132 20.1666 9.88106 20.0217 10.1389 19.7639C10.3968 19.506 10.5416 19.1563 10.5416 18.7916ZM2.74998 18.7916V12.8333C2.74998 12.7117 2.79827 12.5951 2.88422 12.5092C2.97018 12.4232 3.08676 12.3749 3.20831 12.3749H9.16665C9.2882 12.3749 9.40478 12.4232 9.49074 12.5092C9.57669 12.5951 9.62498 12.7117 9.62498 12.8333V18.7916C9.62498 18.9131 9.57669 19.0297 9.49074 19.1157C9.40478 19.2016 9.2882 19.2499 9.16665 19.2499H3.20831C3.08676 19.2499 2.97018 19.2016 2.88422 19.1157C2.79827 19.0297 2.74998 18.9131 2.74998 18.7916Z" fill="currentColor"/>
<path d="M19.7083 5.72909H16.2708V2.29159C16.2708 2.17003 16.2225 2.05345 16.1366 1.96749C16.0506 1.88154 15.934 1.83325 15.8125 1.83325C15.6909 1.83325 15.5743 1.88154 15.4884 1.96749C15.4024 2.05345 15.3541 2.17003 15.3541 2.29159V5.72909H11.9166C11.7951 5.72909 11.6785 5.77737 11.5926 5.86333C11.5066 5.94928 11.4583 6.06586 11.4583 6.18742C11.4583 6.30898 11.5066 6.42556 11.5926 6.51151C11.6785 6.59746 11.7951 6.64575 11.9166 6.64575H15.3541V10.0833C15.3541 10.2048 15.4024 10.3214 15.4884 10.4073C15.5743 10.4933 15.6909 10.5416 15.8125 10.5416C15.934 10.5416 16.0506 10.4933 16.1366 10.4073C16.2225 10.3214 16.2708 10.2048 16.2708 10.0833V6.64575H19.7083C19.8299 6.64575 19.9465 6.59746 20.0324 6.51151C20.1184 6.42556 20.1666 6.30898 20.1666 6.18742C20.1666 6.06586 20.1184 5.94928 20.0324 5.86333C19.9465 5.77737 19.8299 5.72909 19.7083 5.72909Z" fill="currentColor"/>
<path d="M3.20831 10.5416H9.16665C9.53132 10.5416 9.88106 10.3967 10.1389 10.1389C10.3968 9.881 10.5416 9.53126 10.5416 9.16659V3.20825C10.5416 2.84358 10.3968 2.49384 10.1389 2.23598C9.88106 1.97812 9.53132 1.83325 9.16665 1.83325H3.20831C2.84364 1.83325 2.4939 1.97812 2.23604 2.23598C1.97818 2.49384 1.83331 2.84358 1.83331 3.20825V9.16659C1.83331 9.53126 1.97818 9.881 2.23604 10.1389C2.4939 10.3967 2.84364 10.5416 3.20831 10.5416ZM2.74998 3.20825C2.74998 3.08669 2.79827 2.97012 2.88422 2.88416C2.97018 2.79821 3.08676 2.74992 3.20831 2.74992H9.16665C9.2882 2.74992 9.40478 2.79821 9.49074 2.88416C9.57669 2.97012 9.62498 3.08669 9.62498 3.20825V9.16659C9.62498 9.28814 9.57669 9.40472 9.49074 9.49068C9.40478 9.57663 9.2882 9.62492 9.16665 9.62492H3.20831C3.08676 9.62492 2.97018 9.57663 2.88422 9.49068C2.79827 9.40472 2.74998 9.28814 2.74998 9.16659V3.20825Z" fill="currentColor"/>
</svg>
