<svg width="30" height="30" viewBox="0 0 30 30" fill="none" xmlns="http://www.w3.org/2000/svg">
<g clip-path="url(#clip0_18_3972)">
<path d="M5 20C5.30617 20 5.60167 20.1124 5.83046 20.3159C6.05926 20.5193 6.20543 20.7997 6.24125 21.1037L6.25 21.25V23.75H8.75C9.0686 23.7504 9.37504 23.8723 9.60671 24.0911C9.83838 24.3098 9.97779 24.6087 9.99646 24.9267C10.0151 25.2448 9.91166 25.558 9.70717 25.8023C9.50268 26.0466 9.21262 26.2036 8.89625 26.2412L8.75 26.25H6.25C5.61928 26.2502 5.01179 26.012 4.54931 25.5831C4.08684 25.1543 3.80355 24.5664 3.75625 23.9375L3.75 23.75V21.25C3.75 20.9185 3.8817 20.6005 4.11612 20.3661C4.35054 20.1317 4.66848 20 5 20ZM25 20C25.3315 20 25.6495 20.1317 25.8839 20.3661C26.1183 20.6005 26.25 20.9185 26.25 21.25V23.75C26.25 24.413 25.9866 25.0489 25.5178 25.5178C25.0489 25.9866 24.413 26.25 23.75 26.25H21.25C20.9185 26.25 20.6005 26.1183 20.3661 25.8839C20.1317 25.6495 20 25.3315 20 25C20 24.6685 20.1317 24.3505 20.3661 24.1161C20.6005 23.8817 20.9185 23.75 21.25 23.75H23.75V21.25C23.75 20.9185 23.8817 20.6005 24.1161 20.3661C24.3505 20.1317 24.6685 20 25 20ZM18.5 17.3213C18.6166 17.2036 18.7555 17.1103 18.9085 17.0468C19.0615 16.9833 19.2255 16.9508 19.3912 16.9513C19.5569 16.9517 19.7208 16.9851 19.8734 17.0495C20.026 17.1138 20.1644 17.2079 20.2803 17.3262C20.3963 17.4445 20.4876 17.5846 20.5489 17.7385C20.6103 17.8924 20.6404 18.0569 20.6376 18.2226C20.6347 18.3882 20.599 18.5516 20.5325 18.7033C20.466 18.855 20.3699 18.992 20.25 19.1062C18.8492 20.4822 16.9635 21.2522 15 21.25C13.0365 21.2522 11.1508 20.4822 9.75 19.1062C9.63007 18.992 9.53404 18.855 9.46751 18.7033C9.40097 18.5516 9.36526 18.3882 9.36243 18.2226C9.35961 18.0569 9.38974 17.8924 9.45106 17.7385C9.51239 17.5846 9.60369 17.4445 9.71966 17.3262C9.83563 17.2079 9.97396 17.1138 10.1266 17.0495C10.2792 16.9851 10.4431 16.9517 10.6088 16.9513C10.7745 16.9508 10.9385 16.9833 11.0915 17.0468C11.2445 17.1103 11.3834 17.2036 11.5 17.3213C12.4335 18.239 13.6909 18.7523 15 18.75C16.3625 18.75 17.5963 18.2063 18.5 17.3213ZM10.625 10C11.1223 10 11.5992 10.1975 11.9508 10.5492C12.3025 10.9008 12.5 11.3777 12.5 11.875C12.5 12.3723 12.3025 12.8492 11.9508 13.2008C11.5992 13.5525 11.1223 13.75 10.625 13.75C10.1277 13.75 9.65081 13.5525 9.29917 13.2008C8.94754 12.8492 8.75 12.3723 8.75 11.875C8.75 11.3777 8.94754 10.9008 9.29917 10.5492C9.65081 10.1975 10.1277 10 10.625 10ZM19.375 10C19.8723 10 20.3492 10.1975 20.7008 10.5492C21.0525 10.9008 21.25 11.3777 21.25 11.875C21.25 12.3723 21.0525 12.8492 20.7008 13.2008C20.3492 13.5525 19.8723 13.75 19.375 13.75C18.8777 13.75 18.4008 13.5525 18.0492 13.2008C17.6975 12.8492 17.5 12.3723 17.5 11.875C17.5 11.3777 17.6975 10.9008 18.0492 10.5492C18.4008 10.1975 18.8777 10 19.375 10ZM8.75 3.75C9.08152 3.75 9.39946 3.8817 9.63388 4.11612C9.8683 4.35054 10 4.66848 10 5C10 5.33152 9.8683 5.64946 9.63388 5.88388C9.39946 6.1183 9.08152 6.25 8.75 6.25H6.25V8.75C6.25 9.08152 6.1183 9.39946 5.88388 9.63388C5.64946 9.8683 5.33152 10 5 10C4.66848 10 4.35054 9.8683 4.11612 9.63388C3.8817 9.39946 3.75 9.08152 3.75 8.75V6.25C3.75 5.58696 4.01339 4.95107 4.48223 4.48223C4.95107 4.01339 5.58696 3.75 6.25 3.75H8.75ZM23.75 3.75C24.413 3.75 25.0489 4.01339 25.5178 4.48223C25.9866 4.95107 26.25 5.58696 26.25 6.25V8.75C26.25 9.08152 26.1183 9.39946 25.8839 9.63388C25.6495 9.8683 25.3315 10 25 10C24.6685 10 24.3505 9.8683 24.1161 9.63388C23.8817 9.39946 23.75 9.08152 23.75 8.75V6.25H21.25C20.9185 6.25 20.6005 6.1183 20.3661 5.88388C20.1317 5.64946 20 5.33152 20 5C20 4.66848 20.1317 4.35054 20.3661 4.11612C20.6005 3.8817 20.9185 3.75 21.25 3.75H23.75Z" fill="#1B1D4D"/>
</g>
<defs>
<clipPath id="clip0_18_3972">
<rect width="30" height="30" fill="white"/>
</clipPath>
</defs>
</svg>
