<svg width="161" height="150" viewBox="0 0 161 150" fill="none" xmlns="http://www.w3.org/2000/svg">
<path d="M150.118 103.674C149.83 103.578 149.542 103.501 149.236 103.425C148.66 103.271 148.066 103.156 147.49 103.079C147.203 103.041 146.915 103.003 146.627 102.964C145.803 102.868 145.132 102.216 145.036 101.373C144.997 101.085 144.959 100.797 144.921 100.51C144.825 99.9342 144.71 99.3397 144.575 98.7644C144.499 98.4767 144.422 98.189 144.326 97.8822C144.23 97.5945 144.134 97.3068 144 97C143.866 97.2877 143.77 97.5753 143.674 97.8822C143.578 98.1699 143.501 98.4575 143.425 98.7644C143.271 99.3397 143.156 99.9342 143.079 100.51C143.041 100.797 143.003 101.085 142.964 101.373C142.869 102.197 142.216 102.868 141.373 102.964C141.085 103.003 140.797 103.041 140.51 103.079C139.934 103.175 139.34 103.29 138.764 103.425C138.477 103.501 138.189 103.578 137.882 103.674C137.595 103.77 137.307 103.866 137 104C137.288 104.134 137.575 104.23 137.882 104.326C138.17 104.422 138.458 104.499 138.764 104.575C139.34 104.729 139.934 104.844 140.51 104.921C140.797 104.959 141.085 104.997 141.373 105.036C142.197 105.132 142.869 105.784 142.964 106.627C143.003 106.915 143.041 107.203 143.079 107.49C143.175 108.066 143.29 108.66 143.425 109.236C143.501 109.523 143.578 109.811 143.674 110.118C143.77 110.405 143.866 110.693 144 111C144.134 110.712 144.23 110.425 144.326 110.118C144.422 109.83 144.499 109.542 144.575 109.236C144.729 108.66 144.844 108.066 144.921 107.49C144.959 107.203 144.997 106.915 145.036 106.627C145.132 105.803 145.784 105.132 146.627 105.036C146.915 104.997 147.203 104.959 147.49 104.921C148.066 104.825 148.66 104.71 149.236 104.575C149.523 104.499 149.811 104.422 150.118 104.326C150.405 104.23 150.693 104.134 151 104C150.693 103.866 150.405 103.77 150.118 103.674Z" fill="#3EB290"/>
<path d="M160.306 95.243C160.075 95.1659 159.843 95.1145 159.612 95.0374C159.15 94.9346 158.687 94.8318 158.25 94.7547C158.019 94.729 157.787 94.7033 157.582 94.6776C156.939 94.6005 156.4 94.0864 156.322 93.4182C156.297 93.1869 156.271 92.9556 156.245 92.75C156.168 92.2874 156.091 91.8248 155.963 91.3879C155.911 91.1565 155.834 90.9252 155.757 90.6939C155.68 90.4626 155.603 90.2313 155.5 90C155.397 90.2313 155.32 90.4626 155.243 90.6939C155.166 90.9252 155.114 91.1565 155.037 91.3879C154.935 91.8505 154.832 92.3131 154.755 92.75C154.729 92.9813 154.703 93.2126 154.678 93.4182C154.6 94.0607 154.086 94.6005 153.418 94.6776C153.187 94.7033 152.956 94.729 152.75 94.7547C152.287 94.8318 151.825 94.9089 151.388 95.0374C151.157 95.0888 150.925 95.1659 150.694 95.243C150.463 95.3201 150.231 95.3972 150 95.5C150.231 95.6028 150.463 95.6799 150.694 95.757C150.925 95.8341 151.157 95.8855 151.388 95.9626C151.85 96.0654 152.313 96.1682 152.75 96.2453C152.981 96.271 153.213 96.2967 153.418 96.3224C154.061 96.3995 154.6 96.9136 154.678 97.5818C154.703 97.8131 154.729 98.0444 154.755 98.25C154.832 98.7126 154.909 99.1752 155.037 99.6122C155.089 99.8435 155.166 100.075 155.243 100.306C155.32 100.537 155.397 100.769 155.5 101C155.603 100.769 155.68 100.537 155.757 100.306C155.834 100.075 155.886 99.8435 155.963 99.6122C156.065 99.1495 156.168 98.6869 156.245 98.25C156.271 98.0187 156.297 97.7874 156.322 97.5818C156.4 96.9393 156.914 96.3995 157.582 96.3224C157.813 96.2967 158.044 96.271 158.25 96.2453C158.713 96.1682 159.175 96.0911 159.612 95.9626C159.843 95.9112 160.075 95.8341 160.306 95.757C160.537 95.6799 160.769 95.6028 161 95.5C160.769 95.3972 160.537 95.3201 160.306 95.243Z" fill="#3EB290"/>
<g filter="url(#filter0_d_18_5304)">
<circle cx="77" cy="60" r="50" fill="#3EB290"/>
</g>
<path d="M97 45L69.5 72.5L57 60" stroke="white" stroke-width="4" stroke-linecap="round" stroke-linejoin="round"/>
<path d="M13.1178 13.674C12.8301 13.5781 12.5425 13.5014 12.2356 13.4247C11.6603 13.2712 11.0658 13.1562 10.4904 13.0795C10.2027 13.0411 9.91507 13.0027 9.6274 12.9644C8.80274 12.8685 8.13151 12.2164 8.03562 11.3726C7.99726 11.0849 7.9589 10.7973 7.92055 10.5096C7.82466 9.93425 7.70959 9.33973 7.57534 8.76438C7.49863 8.47671 7.42192 8.18904 7.32603 7.88219C7.23014 7.59452 7.13425 7.30685 7 7C6.86575 7.28767 6.76986 7.57534 6.67397 7.88219C6.57808 8.16986 6.50137 8.45753 6.42466 8.76438C6.27123 9.33973 6.15617 9.93425 6.07945 10.5096C6.0411 10.7973 6.00275 11.0849 5.96439 11.3726C5.8685 12.1973 5.21644 12.8685 4.3726 12.9644C4.08493 13.0027 3.79726 13.0411 3.50959 13.0795C2.93424 13.1753 2.33973 13.2904 1.76439 13.4247C1.47671 13.5014 1.18905 13.5781 0.882199 13.674C0.594528 13.7699 0.306849 13.8658 0 14C0.287671 14.1342 0.57535 14.2301 0.882199 14.326C1.16987 14.4219 1.45754 14.4986 1.76439 14.5753C2.33973 14.7288 2.93424 14.8438 3.50959 14.9205C3.79726 14.9589 4.08493 14.9973 4.3726 15.0356C5.19726 15.1315 5.8685 15.7836 5.96439 16.6274C6.00275 16.9151 6.0411 17.2027 6.07945 17.4904C6.17534 18.0658 6.29041 18.6603 6.42466 19.2356C6.50137 19.5233 6.57808 19.811 6.67397 20.1178C6.76986 20.4055 6.86575 20.6932 7 21C7.13425 20.7123 7.23014 20.4247 7.32603 20.1178C7.42192 19.8301 7.49863 19.5425 7.57534 19.2356C7.72877 18.6603 7.84383 18.0658 7.92055 17.4904C7.9589 17.2027 7.99726 16.9151 8.03562 16.6274C8.13151 15.8027 8.78356 15.1315 9.6274 15.0356C9.91507 14.9973 10.2027 14.9589 10.4904 14.9205C11.0658 14.8247 11.6603 14.7096 12.2356 14.5753C12.5233 14.4986 12.811 14.4219 13.1178 14.326C13.4055 14.2301 13.6932 14.1342 14 14C13.6932 13.8658 13.4055 13.7699 13.1178 13.674Z" fill="#3EB290"/>
<path d="M23.3061 5.24299C23.0748 5.16589 22.8435 5.11449 22.6122 5.03738C22.1495 4.93458 21.6869 4.83178 21.25 4.75467C21.0187 4.72897 20.7874 4.70327 20.5818 4.67757C19.9393 4.60047 19.3995 4.08645 19.3224 3.41822C19.2967 3.18692 19.271 2.95561 19.2453 2.75C19.1682 2.28738 19.0911 1.82477 18.9626 1.38785C18.9112 1.15654 18.8341 0.925234 18.757 0.693925C18.6799 0.462617 18.6028 0.231308 18.5 0C18.3972 0.231308 18.3201 0.462617 18.243 0.693925C18.1659 0.925234 18.1145 1.15654 18.0374 1.38785C17.9346 1.85047 17.8318 2.31308 17.7547 2.75C17.729 2.98131 17.7033 3.21262 17.6776 3.41822C17.6005 4.06075 17.0864 4.60047 16.4182 4.67757C16.1869 4.70327 15.9556 4.72897 15.75 4.75467C15.2874 4.83178 14.8248 4.90888 14.3879 5.03738C14.1565 5.08879 13.9252 5.16589 13.6939 5.24299C13.4626 5.32009 13.2313 5.3972 13 5.5C13.2313 5.6028 13.4626 5.67991 13.6939 5.75701C13.9252 5.83411 14.1565 5.88551 14.3879 5.96262C14.8505 6.06542 15.3131 6.16822 15.75 6.24533C15.9813 6.27103 16.2126 6.29673 16.4182 6.32243C17.0607 6.39953 17.6005 6.91355 17.6776 7.58178C17.7033 7.81308 17.729 8.04439 17.7547 8.25C17.8318 8.71262 17.9089 9.17523 18.0374 9.61215C18.0888 9.84346 18.1659 10.0748 18.243 10.3061C18.3201 10.5374 18.3972 10.7687 18.5 11C18.6028 10.7687 18.6799 10.5374 18.757 10.3061C18.8341 10.0748 18.8855 9.84346 18.9626 9.61215C19.0654 9.14953 19.1682 8.68692 19.2453 8.25C19.271 8.01869 19.2967 7.78738 19.3224 7.58178C19.3995 6.93925 19.9136 6.39953 20.5818 6.32243C20.8131 6.29673 21.0444 6.27103 21.25 6.24533C21.7126 6.16822 22.1752 6.09112 22.6122 5.96262C22.8435 5.91122 23.0748 5.83411 23.3061 5.75701C23.5374 5.67991 23.7687 5.6028 24 5.5C23.7687 5.3972 23.5374 5.32009 23.3061 5.24299Z" fill="#3EB290"/>
<defs>
<filter id="filter0_d_18_5304" x="7" y="10" width="140" height="140" filterUnits="userSpaceOnUse" color-interpolation-filters="sRGB">
<feFlood flood-opacity="0" result="BackgroundImageFix"/>
<feColorMatrix in="SourceAlpha" type="matrix" values="0 0 0 0 0 0 0 0 0 0 0 0 0 0 0 0 0 0 127 0" result="hardAlpha"/>
<feOffset dy="20"/>
<feGaussianBlur stdDeviation="10"/>
<feComposite in2="hardAlpha" operator="out"/>
<feColorMatrix type="matrix" values="0 0 0 0 0.0862745 0 0 0 0 0.0980392 0 0 0 0 0.4 0 0 0 0.2 0"/>
<feBlend mode="normal" in2="BackgroundImageFix" result="effect1_dropShadow_18_5304"/>
<feBlend mode="normal" in="SourceGraphic" in2="effect1_dropShadow_18_5304" result="shape"/>
</filter>
</defs>
</svg>
