<svg width="22" height="22" viewBox="0 0 22 22" fill="none" xmlns="http://www.w3.org/2000/svg">
<path d="M18.2189 16.7236H3.78125C3.56765 16.7236 3.39453 16.5505 3.39453 16.3369V9.11816C3.39453 4.9245 6.80629 1.5127 11 1.5127C15.1938 1.5127 18.6057 4.9245 18.6057 9.11816V16.3369C18.6056 16.5505 18.4325 16.7236 18.2189 16.7236ZM4.16797 15.9502H17.8322V9.11816C17.8322 5.35097 14.7673 2.28613 11 2.28613C7.23284 2.28613 4.16797 5.35097 4.16797 9.11816V15.9502Z" fill="currentColor"/>
<path d="M18.2189 16.7236H3.78125C3.56765 16.7236 3.39453 16.5505 3.39453 16.3369V9.11816C3.39453 4.9245 6.80629 1.5127 11 1.5127C15.1938 1.5127 18.6057 4.9245 18.6057 9.11816V16.3369C18.6056 16.5505 18.4325 16.7236 18.2189 16.7236ZM4.16797 15.9502H17.8322V9.11816C17.8322 5.35097 14.7673 2.28613 11 2.28613C7.23284 2.28613 4.16797 5.35097 4.16797 9.11816V15.9502Z" fill="currentColor"/>
<path d="M20.0279 13.211C19.8143 13.211 19.6412 13.0379 19.6412 12.8243V8.77532C19.6412 7.68194 19.429 6.61537 19.0106 5.6053C18.5922 4.59524 17.988 3.69113 17.2149 2.91799C17.0639 2.76696 17.0639 2.52212 17.2149 2.37109C17.3659 2.22005 17.6108 2.22005 17.7618 2.37109C18.6071 3.21637 19.2677 4.20495 19.7252 5.30929C20.1827 6.41372 20.4146 7.57985 20.4146 8.77537V12.8243C20.4146 13.0379 20.2415 13.211 20.0279 13.211Z" fill="currentColor"/>
<path d="M1.97211 13.211C1.75851 13.211 1.58539 13.0378 1.58539 12.8242V8.77529C1.58539 7.57977 1.81733 6.41364 2.27482 5.30926C2.73227 4.20488 3.39287 3.21634 4.23815 2.37106C4.38923 2.22006 4.63402 2.22006 4.78506 2.37106C4.93609 2.52205 4.93605 2.76693 4.78506 2.91796C4.01192 3.69106 3.40778 4.59521 2.98939 5.60523C2.57096 6.61529 2.35883 7.68187 2.35883 8.77529V12.8242C2.35883 13.0378 2.18566 13.211 1.97211 13.211Z" fill="currentColor"/>
<path d="M11.0001 20.4874C9.4676 20.4874 8.10184 19.5148 7.60147 18.0674C7.53169 17.8655 7.63876 17.6454 7.84059 17.5756C8.04241 17.5057 8.26267 17.6128 8.33241 17.8147C8.72514 18.9507 9.79708 19.7139 10.9999 19.7139C12.2028 19.7139 13.2748 18.9507 13.6675 17.8147C13.7373 17.6128 13.9575 17.5057 14.1593 17.5756C14.3612 17.6454 14.4682 17.8656 14.3984 18.0674C13.8981 19.5148 12.5324 20.4874 11.0001 20.4874Z" fill="currentColor"/>
<path d="M18.4479 18.3277H3.55205C3.23464 18.3277 2.93614 18.204 2.7115 17.9794C2.4869 17.7548 2.36328 17.4564 2.36328 17.1391C2.36328 16.8218 2.48682 16.5234 2.71107 16.2985C2.93584 16.0737 3.23439 15.9502 3.55205 15.9502H18.448C18.7658 15.9502 19.0643 16.0737 19.2886 16.2981C19.5134 16.5234 19.6369 16.8218 19.6369 17.1387V17.1391C19.6369 17.4563 19.5133 17.7548 19.2886 17.9794C19.0673 18.2007 18.7608 18.3277 18.4479 18.3277ZM3.55205 16.7236C3.44094 16.7236 3.33661 16.7667 3.25832 16.845C3.18003 16.9235 3.13672 17.0279 3.13672 17.1387C3.13672 17.2498 3.1799 17.354 3.25836 17.4324C3.33691 17.5109 3.44124 17.5542 3.55205 17.5542H18.448C18.5573 17.5542 18.6643 17.5098 18.7417 17.4324C18.8202 17.3539 18.8635 17.2498 18.8635 17.1391V17.1387C18.8635 17.028 18.8201 16.9236 18.7413 16.8446C18.6635 16.7667 18.5591 16.7236 18.4479 16.7236H3.55205Z" fill="currentColor"/>
</svg>
