<svg width="23" height="23" viewBox="0 0 23 23" fill="none" xmlns="http://www.w3.org/2000/svg">
<path d="M20.9785 3.95312H19.4062V3.23438C19.4062 2.04535 18.439 1.07812 17.25 1.07812H2.875C1.68598 1.07812 0.71875 2.04535 0.71875 3.23438V7.90625C0.71875 8.10471 0.879488 8.26562 1.07812 8.26562H4.3125V19.7656C4.3125 20.9546 5.27973 21.9219 6.46875 21.9219H19.0469C20.2359 21.9219 21.2031 20.9546 21.2031 19.7656V16.8906C21.2031 16.692 21.0424 16.5312 20.8438 16.5312H19.4062V14.7344H20.9785C21.6969 14.7344 22.2812 14.15 22.2812 13.4316V5.25586C22.2812 4.53746 21.6969 3.95312 20.9785 3.95312ZM4.3125 7.54688H1.4375V3.23438C1.4375 2.44175 2.0822 1.79688 2.875 1.79688H4.3125V7.54688ZM7.90625 16.8906V19.7656C7.90625 20.5584 7.26155 21.2031 6.46875 21.2031C5.67595 21.2031 5.03125 20.5584 5.03125 19.7656V1.79688H17.25C18.0428 1.79688 18.6875 2.44175 18.6875 3.23438V3.95312H7.77148C7.05309 3.95312 6.46875 4.53746 6.46875 5.25586V13.4316C6.46875 14.15 7.05309 14.7344 7.77148 14.7344H18.6875V16.5312H8.26562C8.06699 16.5312 7.90625 16.692 7.90625 16.8906ZM9.59012 4.67188C9.42868 5.92074 8.43654 6.91306 7.1875 7.07449V5.25586C7.1875 4.93386 7.44931 4.67188 7.77148 4.67188H9.59012ZM7.1875 11.613C8.43654 11.7744 9.42868 12.7666 9.59012 14.0156H7.77148C7.44931 14.0156 7.1875 13.7538 7.1875 13.4316V11.613ZM20.4844 17.25V19.7656C20.4844 20.5584 19.8397 21.2031 19.0469 21.2031H8.07137C8.41434 20.8212 8.625 20.3182 8.625 19.7656V17.25H20.4844ZM21.5625 13.4316C21.5625 13.7538 21.3007 14.0156 20.9785 14.0156H19.1599C19.3213 12.7666 20.3135 11.7744 21.5625 11.613V13.4316ZM21.5625 10.8895C19.9169 11.0579 18.6048 12.37 18.4363 14.0156H10.3137C10.1452 12.37 8.83311 11.0579 7.1875 10.8895V7.79805C8.83311 7.62959 10.1452 6.31751 10.3137 4.67188H18.4363C18.6048 6.31751 19.9169 7.62959 21.5625 7.79805V10.8895H21.5625ZM21.5625 7.07449C20.3135 6.91306 19.3213 5.92074 19.1599 4.67188H20.9785C21.3007 4.67188 21.5625 4.93386 21.5625 5.25586V7.07449Z" fill="currentColor"/>
<path d="M14.375 5.39062C12.3935 5.39062 10.7812 7.16399 10.7812 9.34375C10.9796 14.5883 17.771 14.587 17.9688 9.34371C17.9688 7.16399 16.3565 5.39062 14.375 5.39062V5.39062ZM14.375 12.5781C12.7898 12.5781 11.5 11.1271 11.5 9.34375C11.6595 5.05242 17.091 5.05347 17.25 9.34377C17.25 11.1271 15.9602 12.5781 14.375 12.5781Z" fill="currentColor"/>
</svg>
