<svg width="24" height="24" viewBox="0 0 24 24" fill="none" xmlns="http://www.w3.org/2000/svg">
<path d="M15 4H21C22.1046 4 23 4.89543 23 6V18C23 19.1046 22.1046 20 21 20H3C1.89543 20 1 19.1046 1 18V6C1 4.89543 1.89543 4 3 4H9" stroke="white" stroke-width="1.5" stroke-linecap="round" stroke-linejoin="round"/>
<path d="M1 10H9M23 10H15" stroke="white" stroke-width="1.5" stroke-linecap="round" stroke-linejoin="round"/>
<path d="M12.75 1.5C12.75 1.08579 12.4142 0.75 12 0.75C11.5858 0.75 11.25 1.08579 11.25 1.5H12.75ZM11.4697 18.5303C11.7626 18.8232 12.2374 18.8232 12.5303 18.5303L17.3033 13.7574C17.5962 13.4645 17.5962 12.9896 17.3033 12.6967C17.0104 12.4038 16.5355 12.4038 16.2426 12.6967L12 16.9393L7.75736 12.6967C7.46447 12.4038 6.98959 12.4038 6.6967 12.6967C6.40381 12.9896 6.40381 13.4645 6.6967 13.7574L11.4697 18.5303ZM11.25 1.5V18H12.75V1.5H11.25Z" fill="white"/>
</svg>
