<svg width="24" height="24" viewBox="0 0 24 24" fill="none" xmlns="http://www.w3.org/2000/svg">
<g clip-path="url(#clip0_1219_309)">
<path d="M20.4526 5.89134L17.3931 0.59203C17.2352 0.318561 16.9795 0.122718 16.673 0.0406395C16.3664 -0.0414855 16.047 0.000233244 15.7736 0.158155L5.8448 5.89055H3.57947C2.20022 5.89055 1.07812 7.01264 1.07812 8.39189V19.3423C1.07812 20.7216 2.20022 21.8437 3.57947 21.8437H4.25873C5.19436 23.1483 6.72342 23.9999 8.44777 23.9999C10.1721 23.9999 11.7012 23.1483 12.6368 21.8437H20.4205C21.7998 21.8437 22.9219 20.7216 22.9219 19.3423V8.39189C22.9219 7.02342 21.8171 5.90869 20.4526 5.89134ZM11.4517 5.89055L17.5525 2.36817L18.0798 3.28144L13.5607 5.89055H11.4517ZM18.4548 3.93094L19.5862 5.89055H15.0607L18.4548 3.93094ZM16.1486 0.807608C16.2486 0.749952 16.3659 0.734764 16.4789 0.765046C16.5918 0.795327 16.6859 0.867046 16.7436 0.96703L17.1775 1.71872L9.9517 5.89059H7.3447L16.1486 0.807608ZM8.44777 23.2499C6.02053 23.2499 4.04583 21.2752 4.04583 18.8479C4.04583 16.4207 6.02053 14.4459 8.44777 14.4459C10.875 14.4459 12.8497 16.4207 12.8497 18.8479C12.8497 21.2752 10.875 23.2499 8.44777 23.2499ZM20.4205 21.0937H13.0839C13.4142 20.4145 13.5997 19.6525 13.5997 18.8479C13.5997 16.0071 11.2886 13.6959 8.44777 13.6959C5.60695 13.6959 3.29583 16.0071 3.29583 18.8479C3.29583 19.6525 3.48136 20.4145 3.81164 21.0937H3.57947C2.6138 21.0937 1.82812 20.308 1.82812 19.3423V8.39189C1.82812 7.42617 2.6138 6.64055 3.57947 6.64055H20.4205C21.3862 6.64055 22.1718 7.42622 22.1718 8.39189V11.1158H16.3538C14.8367 11.1158 13.6025 12.3501 13.6025 13.8671C13.6025 15.3841 14.8367 16.6183 16.3538 16.6183H22.1719V19.3422C22.1719 20.308 21.3862 21.0937 20.4205 21.0937ZM22.1719 11.8659V15.8684H16.3538C15.2503 15.8684 14.3525 14.9707 14.3525 13.8672C14.3525 12.7637 15.2503 11.8659 16.3538 11.8659H22.1719V11.8659ZM15.1939 13.8671C15.1939 14.5066 15.7142 15.0269 16.3538 15.0269C16.9933 15.0269 17.5135 14.5066 17.5135 13.8671C17.5135 13.2276 16.9932 12.7073 16.3538 12.7073C15.7142 12.7073 15.1939 13.2276 15.1939 13.8671ZM16.7635 13.8671C16.7635 14.0931 16.5797 14.2769 16.3538 14.2769C16.1278 14.2769 15.9439 14.0931 15.9439 13.8671C15.9439 13.6411 16.1278 13.4573 16.3538 13.4573C16.5797 13.4573 16.7635 13.6411 16.7635 13.8671ZM9.95991 19.3795C9.95972 19.3795 9.95953 19.3795 9.95939 19.3795C9.25458 19.3798 8.6813 19.9534 8.68158 20.6582C8.68172 20.9996 8.8148 21.3206 9.0563 21.5619C9.29766 21.8032 9.61852 21.936 9.95977 21.936H9.96023C10.3017 21.9359 10.6227 21.8028 10.864 21.5613C11.1053 21.3198 11.2382 20.9987 11.238 20.6573C11.238 20.3159 11.1049 19.9949 10.8634 19.7535C10.622 19.5123 10.3012 19.3795 9.95991 19.3795ZM10.3335 21.0312C10.2338 21.131 10.1011 21.186 9.96 21.186C9.95991 21.186 9.95986 21.186 9.95981 21.186C9.81877 21.186 9.68616 21.1311 9.58641 21.0314C9.48656 20.9317 9.43158 20.799 9.43153 20.6579C9.43144 20.3666 9.66834 20.1296 9.95963 20.1295H9.95981C10.1009 20.1295 10.2335 20.1844 10.3333 20.2841C10.4331 20.3838 10.488 20.5164 10.4881 20.6576C10.4881 20.7987 10.4332 20.9314 10.3335 21.0312ZM6.93614 18.3164C7.64095 18.3161 8.21423 17.7425 8.21395 17.0377C8.21386 16.6963 8.08078 16.3753 7.83928 16.134C7.59788 15.8927 7.27702 15.7599 6.93577 15.7599C6.93558 15.7599 6.93539 15.7599 6.93525 15.7599C6.23044 15.7602 5.65716 16.3338 5.65744 17.0386C5.65772 17.7433 6.23105 18.3165 6.93577 18.3165C6.93586 18.3164 6.93605 18.3164 6.93614 18.3164ZM6.40739 17.0383C6.4073 16.747 6.6442 16.5099 6.93548 16.5098H6.93567C7.07677 16.5098 7.20937 16.5647 7.30912 16.6644C7.40892 16.7642 7.46391 16.8968 7.46395 17.038C7.46405 17.3293 7.22714 17.5663 6.93591 17.5664C6.93586 17.5664 6.93581 17.5664 6.93577 17.5664C6.64453 17.5664 6.40748 17.3295 6.40739 17.0383ZM10.4724 16.6927L7.08717 21.4074C7.01391 21.5094 6.89892 21.5638 6.78225 21.5638C6.70655 21.5638 6.63009 21.5409 6.56386 21.4933C6.39563 21.3726 6.35719 21.1382 6.47798 20.97L9.86325 16.2553C9.984 16.0871 10.2182 16.0485 10.3866 16.1694C10.5548 16.2902 10.5932 16.5245 10.4724 16.6927Z" fill="currentColor"/>
</g>
<defs>
<clipPath id="clip0_1219_309">
<rect width="24" height="24" fill="white"/>
</clipPath>
</defs>
</svg>
