<svg width="22" height="22" viewBox="0 0 22 22" fill="none" xmlns="http://www.w3.org/2000/svg">
<g clip-path="url(#clip0_15_7958)">
<path d="M16.8438 7.5625C16.2751 7.5625 15.8125 8.02514 15.8125 8.59375C15.8125 9.16236 16.2751 9.625 16.8438 9.625C17.4124 9.625 17.875 9.16236 17.875 8.59375C17.875 8.02514 17.4124 7.5625 16.8438 7.5625ZM16.8438 8.9375C16.6542 8.9375 16.5 8.78329 16.5 8.59375C16.5 8.40421 16.6542 8.25 16.8438 8.25C17.0333 8.25 17.1875 8.40421 17.1875 8.59375C17.1875 8.78329 17.0333 8.9375 16.8438 8.9375Z" fill="#4C4C60"/>
<path d="M20.625 8.59375H20.0766C19.4583 7.09659 18.339 5.7756 16.8438 4.79488V1.03125C16.8438 0.841414 16.6898 0.6875 16.5 0.6875C14.9346 0.6875 13.6371 1.85604 13.4339 3.36664C12.63 3.18545 11.8132 3.09375 11 3.09375C8.43928 3.09375 6.02938 3.94526 4.21425 5.49149C3.27482 6.29174 2.5526 7.2288 2.07135 8.25047C2.06839 8.25039 2.06551 8.25 2.0625 8.25C1.30432 8.25 0.6875 7.63318 0.6875 6.875C0.6875 6.57465 0.782547 6.28934 0.962328 6.05004C1.07637 5.89823 1.04577 5.68275 0.893965 5.56871C0.742199 5.45467 0.526711 5.48535 0.412672 5.63707C0.142699 5.99646 0 6.42452 0 6.875C0 7.92146 0.783492 8.78771 1.79459 8.91954C1.51826 9.6947 1.375 10.5096 1.375 11.3438C1.375 14.0522 2.91298 16.57 5.5 18.1151V19.9375C5.5 20.6957 6.11682 21.3125 6.875 21.3125H7.5625C8.32068 21.3125 8.9375 20.6957 8.9375 19.9375V19.4025C10.2949 19.657 11.7158 19.6556 13.0625 19.4039V19.9375C13.0625 20.6957 13.6793 21.3125 14.4375 21.3125H15.125C15.8832 21.3125 16.5 20.6957 16.5 19.9375V18.1122C17.9306 17.258 19.0457 16.1101 19.7548 14.7812H20.625C21.3832 14.7812 22 14.1644 22 13.4062V9.96875C22 9.21057 21.3832 8.59375 20.625 8.59375ZM21.3125 13.4062C21.3125 13.7853 21.0041 14.0938 20.625 14.0938H20.0783C20.2045 13.7864 20.3102 13.4711 20.394 13.1491C20.4418 12.9654 20.3316 12.7776 20.1479 12.7298C19.9641 12.6821 19.7765 12.7922 19.7286 12.976C19.6129 13.4206 19.4508 13.8512 19.2466 14.2645C19.2383 14.2786 19.2309 14.2933 19.2247 14.3087C18.5526 15.6444 17.4332 16.7937 15.9727 17.6238C15.8323 17.7036 15.7685 17.8684 15.8125 18.0189V19.9375C15.8125 20.3166 15.5041 20.625 15.125 20.625H14.4375C14.0584 20.625 13.75 20.3166 13.75 19.9375V18.9816C13.75 18.877 13.7024 18.7781 13.6206 18.7129C13.5389 18.6476 13.4318 18.6231 13.3299 18.6465C12.5738 18.8189 11.7899 18.9062 11 18.9062C10.2141 18.9062 9.43027 18.8183 8.67019 18.645C8.56814 18.6215 8.46115 18.6461 8.37938 18.7114C8.29761 18.7766 8.24996 18.8755 8.24996 18.9801V19.9375C8.24996 20.3166 7.94153 20.625 7.56246 20.625H6.87496C6.49589 20.625 6.18746 20.3166 6.18746 19.9375L6.1875 17.9178C6.1875 17.7943 6.12128 17.6804 6.01404 17.6192C3.53972 16.2081 2.0625 13.8621 2.0625 11.3438C2.0625 7.17376 6.07187 3.78125 11 3.78125C11.804 3.78125 12.6121 3.87729 13.4062 4.06626V4.46875C13.4062 4.65859 13.5602 4.8125 13.75 4.8125C13.9398 4.8125 14.0938 4.65859 14.0938 4.46875V3.88957C14.1097 3.82998 14.1099 3.76918 14.0947 3.71259C14.128 2.53339 15.0138 1.56363 16.1562 1.39949V4.81972C16.0844 4.97604 16.1393 5.16291 16.2869 5.25486C17.8176 6.20847 18.9424 7.53328 19.5128 9.03607C19.5171 9.05038 19.5224 9.06421 19.5284 9.07766C19.6057 9.28555 19.6727 9.49665 19.7285 9.71072C19.7763 9.89446 19.964 10.0046 20.1477 9.9568C20.3314 9.90898 20.4416 9.72125 20.3937 9.53752C20.3714 9.45162 20.3469 9.36633 20.3213 9.28129H20.625C21.0041 9.28129 21.3125 9.58972 21.3125 9.96879V13.4062Z" fill="#4C4C60"/>
<path d="M11 8.9375C11.6246 8.9375 12.2029 9.23532 12.3453 9.63067C12.365 9.68507 12.375 9.74102 12.375 9.79688C12.375 10.3655 12.8376 10.8281 13.4062 10.8281C13.9749 10.8281 14.4375 10.3655 14.4375 9.79688C14.4375 9.50237 14.3864 9.21108 14.2856 8.9311C13.9473 7.99219 13.1066 7.2872 12.0097 7.00842C11.9123 6.54027 11.4966 6.1875 11 6.1875C10.5044 6.1875 10.0894 6.5389 9.99092 7.00554C9.35193 7.1729 8.77542 7.49938 8.34698 7.94032C7.84111 8.46102 7.5625 9.12033 7.5625 9.79688C7.5625 11.408 9.10456 12.7188 11 12.7188C11.649 12.7188 12.375 13.0863 12.375 13.5781C12.375 14.07 11.649 14.4375 11 14.4375C10.351 14.4375 9.625 14.07 9.625 13.5781C9.625 13.0095 9.1624 12.5469 8.59375 12.5469C8.0251 12.5469 7.5625 13.0095 7.5625 13.5781C7.5625 14.2547 7.84111 14.914 8.34698 15.4347C8.77542 15.8756 9.35193 16.2021 9.99092 16.3695C10.0894 16.8361 10.5044 17.1875 11 17.1875C11.4956 17.1875 11.9106 16.8361 12.0091 16.3695C12.6481 16.2021 13.2246 15.8756 13.653 15.4347C14.1589 14.914 14.4375 14.2547 14.4375 13.5781C14.4375 11.967 12.8954 10.6562 11 10.6562C10.351 10.6562 9.625 10.2887 9.625 9.79688C9.625 9.30501 10.351 8.9375 11 8.9375ZM11 11.3438C12.5164 11.3438 13.75 12.3461 13.75 13.5781C13.75 14.6036 12.8556 15.5179 11.6233 15.7522C11.4611 15.783 11.3438 15.9248 11.3438 16.0899V16.1562C11.3438 16.3458 11.1895 16.5 11 16.5C10.8105 16.5 10.6562 16.3458 10.6562 16.1562V16.0899C10.6562 15.9248 10.5389 15.783 10.3767 15.7522C9.14439 15.5179 8.25 14.6036 8.25 13.5781C8.25 13.3886 8.40421 13.2344 8.59375 13.2344C8.78329 13.2344 8.9375 13.3886 8.9375 13.5781C8.9375 14.4311 9.86275 15.125 11 15.125C12.1373 15.125 13.0625 14.4311 13.0625 13.5781C13.0625 12.7252 12.1373 12.0312 11 12.0312C9.48363 12.0312 8.25 11.0289 8.25 9.79688C8.25 8.77143 9.14439 7.85709 10.3767 7.62283C10.5389 7.59198 10.6562 7.45018 10.6562 7.28514V7.21875C10.6562 7.02921 10.8105 6.875 11 6.875C11.1895 6.875 11.3438 7.02921 11.3438 7.21875V7.28935C11.3438 7.45491 11.4617 7.59692 11.6245 7.62725C12.5903 7.80734 13.3621 8.39622 13.6387 9.16412C13.7126 9.36908 13.75 9.58199 13.75 9.79688C13.75 9.98641 13.5958 10.1406 13.4062 10.1406C13.2167 10.1406 13.0625 9.98641 13.0625 9.79688C13.0625 9.66105 13.0387 9.52639 12.992 9.39722C12.7487 8.72175 11.9295 8.25 11 8.25C9.86275 8.25 8.9375 8.9439 8.9375 9.79688C8.9375 10.6498 9.86275 11.3438 11 11.3438Z" fill="#4C4C60"/>
<path d="M7.07714 5.29586C5.9847 5.78936 5.02328 6.49551 4.29672 7.33787C4.17271 7.48164 4.18874 7.69863 4.33251 7.82264C4.39748 7.87867 4.47736 7.90609 4.55689 7.90609C4.6534 7.90609 4.74935 7.86569 4.81737 7.78685C5.479 7.01968 6.35831 6.37498 7.36022 5.9223C7.53325 5.84419 7.61012 5.64051 7.53196 5.46752C7.45376 5.29462 7.25022 5.21762 7.07714 5.29586Z" fill="#4C4C60"/>
<path d="M8.46689 5.50002C8.49757 5.50002 8.52877 5.49585 8.55979 5.48722C8.81584 5.4155 9.0795 5.35453 9.34341 5.30602C9.53016 5.27168 9.65369 5.0925 9.61936 4.90581C9.58503 4.71911 9.40589 4.59557 9.21915 4.62986C8.93474 4.68215 8.65054 4.74785 8.37443 4.82515C8.19164 4.87633 8.0849 5.06604 8.13612 5.24887C8.17857 5.40068 8.31659 5.50002 8.46689 5.50002Z" fill="#4C4C60"/>
</g>
<defs>
<clipPath id="clip0_15_7958">
<rect width="22" height="22" fill="white"/>
</clipPath>
</defs>
</svg>
