<svg width="37" height="29" viewBox="0 0 37 29" fill="none" xmlns="http://www.w3.org/2000/svg">
<path fill-rule="evenodd" clip-rule="evenodd" d="M12.779 2.45486V4.04184C12.779 6.27409 10.9466 8.08368 8.68629 8.08368H7.80748V2.45486C7.80748 1.09908 8.9204 0 10.2932 0C11.6661 0 12.779 1.09908 12.779 2.45486ZM18.4252 29C24.2845 29 29.0608 24.3034 29.0608 18.5418C29.0608 12.7803 24.3023 8.08368 18.443 8.10114H15.2541C13.8871 8.10114 12.779 9.1955 12.779 10.5455C12.779 11.8954 13.8871 12.9898 15.2541 12.9898H18.4252C21.5502 12.9898 24.0892 15.4865 24.0892 18.5593C24.0892 21.6321 21.5502 24.1288 18.4252 24.1288C15.3003 24.1288 12.7612 21.6321 12.7612 18.5593V17.8995C12.7612 15.1879 10.5354 12.9898 7.7897 12.9898V18.5418C7.7897 24.3034 12.5659 29 18.4252 29ZM7.80744 8.08369H2.47508C1.10813 8.08369 0 9.17804 0 10.528C0 11.878 1.10813 12.9723 2.47508 12.9723H7.80744V8.08369ZM33.9411 18.85C33.9411 18.4629 34.2589 18.1492 34.6508 18.1492C35.0427 18.1492 35.3605 18.4629 35.3605 18.85C35.3605 19.2371 35.0427 19.5508 34.6508 19.5508C34.2589 19.5508 33.9411 19.2371 33.9411 18.85ZM37 18.85C37 20.1313 35.9482 21.17 34.6508 21.17C33.3534 21.17 32.3016 20.1313 32.3016 18.85C32.3016 17.5687 33.3534 16.53 34.6508 16.53C35.9482 16.53 37 17.5687 37 18.85Z" fill="#1B1D4D"/>
</svg>
